<svg version="1" xmlns="http://www.w3.org/2000/svg" width="682.667" height="682.667" viewBox="0 0 512.000000 512.000000"><path d="M237.9 1.4c-.2.2-3.8.7-7.9 1.1-4.1.4-8.2.8-9 1-.8.1-3.5.6-6 1-8.8 1.4-28.6 6.4-38.5 9.8-27.5 9.5-54.3 24.6-76 42.9-5.4 4.6-10 8.8-10.2 9.3-.2.6 37 38.3 82.7 84l82.9 82.9 83.3-83.2 83.3-83.3-5-4.5c-2.7-2.5-6.6-5.7-8.5-7.2-1.9-1.5-3.7-2.9-4-3.2-1.4-1.5-12.5-9.2-19.6-13.7-7.7-4.9-25-14-33.9-17.8-2.2-.9-4.9-2.1-6-2.6-12-5.1-37.4-11.8-55-14.5-9.6-1.5-51.5-3-52.6-2zM63.2 93.5C29.6 130.3 8.1 178.9 2.3 230.7c-1 8.9-1 40.8 0 50.3 4.3 40.4 19.3 81.1 41.7 112.9 2.5 3.5 5.2 7.3 6 8.5 2.6 3.8 16.2 19.6 16.9 19.6.3 0 37.9-37.4 83.6-83l82.9-83.1-82.9-82.9c-45.7-45.7-83.3-83-83.6-83-.3 0-2 1.6-3.7 3.5zM361.5 173l-83 83 83.3 83.3 83.2 83.2 3.3-3.6c7.8-8.7 9.5-10.7 13.3-15.9 12.8-17.4 20.5-30.5 27.8-47 2.1-4.7 4.1-9.4 4.6-10.5 4.9-11.1 12-38 14.6-55.5 2.8-18.5 2.5-53.4-.6-72-.5-3-1.2-6.9-1.5-8.7-1.9-11.3-10.4-38.8-15.2-49.3-7.3-16-16.5-33.1-18.8-35-.8-.7-1.5-1.7-1.5-2.2 0-.8-12.7-18.5-15.4-21.5-.6-.6-3.1-3.4-5.5-6.2-2.4-2.8-4.7-5.1-5-5.1-.3 0-37.9 37.4-83.6 83zM172.5 362.1l-83 83.1 5.5 5c29.2 26.7 72.9 48.3 114 56.2 27.4 5.3 62.5 5.8 87.5 1.2 10.7-2 15-2.9 23.5-5.2 35-9.5 72-29.5 97.5-52.7l5-4.6-83-83C293.9 316.4 256.3 279 256 279c-.3 0-37.8 37.4-83.5 83.1z"/></svg>